<?xml version="1.0" encoding="utf-8"?>
<svg xmlns="http://www.w3.org/2000/svg" xmlns:xlink="http://www.w3.org/1999/xlink" style="margin: auto; background: rgb(1, 44, 50); display: block; z-index: 1; position: relative; shape-rendering: auto;" width="1440" height="800" preserveAspectRatio="xMidYMid" viewBox="0 0 1440 800">
<g transform="translate(720,400) scale(1,1) translate(-720,-400)"><path d="M-100 479.7C-71.6 483.15 -72.56 479.41 -47.1 479.41S-20.5 468.36 5.81 468.36S33.64 475.75 58.71 475.75S85.49 470.5 111.61 470.5S139.4 475.07 164.52 475.07S191.18 472.37 217.42 472.37S244.87 465.86 270.32 465.86S297.15 468.21 323.23 468.21S351.61 475.28 376.13 475.28S403.6 478.54 429.03 478.54S457.03 472.21 481.94 472.21S510.16 475.19 534.84 475.19S562.76 476.5 587.74 476.5S614.37 473.07 640.65 473.07S668.47 474.9 693.55 474.9S721.96 479.56 746.45 479.56S774.9 467.73 799.35 467.73S826.66 470.45 852.26 470.45S878.99 479.98 905.16 479.98S932.01 482.64 958.06 482.64S985.24 476.34 1010.97 476.34S1037.62 469.62 1063.87 469.62S1091.27 478.04 1116.77 478.04S1145.18 480.09 1169.68 480.09S1196.32 472.31 1222.58 472.31S1249.77 480.62 1275.48 480.62S1302 482.06 1328.39 482.06S1355.23 470.93 1381.29 470.93S1409.13 471.94 1434.19 471.94S1461.77 476.14 1487.1 476.14S1514.07 471.46 1540 471.46S1567.37 472.55 1592.9 472.55L1540 800 L-100 800 Z" fill="#0f3135" stroke-width="0">
  <animate attributeName="d" dur="25s" repeatCount="indefinite" values="M-100 479.7C-71.6 483.15 -72.56 479.41 -47.1 479.41S-20.5 468.36 5.81 468.36S33.64 475.75 58.71 475.75S85.49 470.5 111.61 470.5S139.4 475.07 164.52 475.07S191.18 472.37 217.42 472.37S244.87 465.86 270.32 465.86S297.15 468.21 323.23 468.21S351.61 475.28 376.13 475.28S403.6 478.54 429.03 478.54S457.03 472.21 481.94 472.21S510.16 475.19 534.84 475.19S562.76 476.5 587.74 476.5S614.37 473.07 640.65 473.07S668.47 474.9 693.55 474.9S721.96 479.56 746.45 479.56S774.9 467.73 799.35 467.73S826.66 470.45 852.26 470.45S878.99 479.98 905.16 479.98S932.01 482.64 958.06 482.64S985.24 476.34 1010.97 476.34S1037.62 469.62 1063.87 469.62S1091.27 478.04 1116.77 478.04S1145.18 480.09 1169.68 480.09S1196.32 472.31 1222.58 472.31S1249.77 480.62 1275.48 480.62S1302 482.06 1328.39 482.06S1355.23 470.93 1381.29 470.93S1409.13 471.94 1434.19 471.94S1461.77 476.14 1487.1 476.14S1514.07 471.46 1540 471.46S1567.37 472.55 1592.9 472.55L1540 800 L-100 800 Z;M-100 481.33C-72.26 474.21 -71.58 477.13 -47.1 477.13S-20.47 468.17 5.81 468.17S34.18 473.54 58.71 473.54S86.79 481.84 111.61 481.84S138.3 482.89 164.52 482.89S191.1 471.63 217.42 471.63S245.58 473.46 270.32 473.46S297.56 479.84 323.23 479.84S349.77 470.02 376.13 470.02S403.73 482.11 429.03 482.11S455.63 476.76 481.94 476.76S509.96 471.01 534.84 471.01S561.37 471.11 587.74 471.11S615.13 479.01 640.65 479.01S668.2 464.4 693.55 464.4S720 470.02 746.45 470.02S774.07 465.19 799.35 465.19S825.95 468.49 852.26 468.49S879.66 467.73 905.16 467.73S932.69 472.03 958.06 472.03S985.51 472.99 1010.97 472.99S1038.58 471.54 1063.87 471.54S1091.37 465.75 1116.77 465.75S1143.43 474.15 1169.68 474.15S1197.13 480.4 1222.58 480.4S1250.29 482.35 1275.48 482.35S1302.51 464.43 1328.39 464.43S1356.07 469.57 1381.29 469.57S1409.38 467.14 1434.19 467.14S1462.24 478.82 1487.1 478.82S1513.92 475.47 1540 475.47S1566.83 475.52 1592.9 475.52L1540 800 L-100 800 Z;M-100 479.7C-71.6 483.15 -72.56 479.41 -47.1 479.41S-20.5 468.36 5.81 468.36S33.64 475.75 58.71 475.75S85.49 470.5 111.61 470.5S139.4 475.07 164.52 475.07S191.18 472.37 217.42 472.37S244.87 465.86 270.32 465.86S297.15 468.21 323.23 468.21S351.61 475.28 376.13 475.28S403.6 478.54 429.03 478.54S457.03 472.21 481.94 472.21S510.16 475.19 534.84 475.19S562.76 476.5 587.74 476.5S614.37 473.07 640.65 473.07S668.47 474.9 693.55 474.9S721.96 479.56 746.45 479.56S774.9 467.73 799.35 467.73S826.66 470.45 852.26 470.45S878.99 479.98 905.16 479.98S932.01 482.64 958.06 482.64S985.24 476.34 1010.97 476.34S1037.62 469.62 1063.87 469.62S1091.27 478.04 1116.77 478.04S1145.18 480.09 1169.68 480.09S1196.32 472.31 1222.58 472.31S1249.77 480.62 1275.48 480.62S1302 482.06 1328.39 482.06S1355.23 470.93 1381.29 470.93S1409.13 471.94 1434.19 471.94S1461.77 476.14 1487.1 476.14S1514.07 471.46 1540 471.46S1567.37 472.55 1592.9 472.55L1540 800 L-100 800 Z"></animate>
  <animateTransform attributeName="transform" type="translate" dur="25s" begin="0s" repeatCount="indefinite" values="0;10;0" calcMode="spline" keySplines="0.3 0 0.7 1;0.3 0 0.7 1"></animateTransform>
</path><path d="M-100 487.79C-72.14 500.64 -71.68 498.3 -45.7 498.3S-18.21 495.54 8.61 495.54S36.12 504 62.91 504S90.48 501.63 117.22 501.63S146.36 507.95 171.52 507.95S199.49 487.33 225.83 487.33S254.48 501.35 280.13 501.35S307.49 493.45 334.44 493.45S363.34 506.66 388.74 506.66S417.61 496.54 443.05 496.54S472.05 488.5 497.35 488.5S525.48 492.15 551.66 492.15S580 506.43 605.96 506.43S633.95 486.48 660.26 486.48S687.58 498.52 714.57 498.52S743.28 491.31 768.87 491.31S796.25 492.03 823.18 492.03S850.97 484.84 877.48 484.84S905.6 488.56 931.79 488.56S960.02 496.7 986.09 496.7S1015.07 504.43 1040.4 504.43S1068.61 485.97 1094.7 485.97S1122.06 491.53 1149.01 491.53S1178.03 493.82 1203.31 493.82S1231.28 492.69 1257.62 492.69S1285.29 498.95 1311.92 498.95S1339.86 503.05 1366.23 503.05S1393.45 500.52 1420.53 500.52S1449.39 489.03 1474.83 489.03S1502.92 488.1 1529.14 488.1S1557.75 497.55 1583.44 497.55L1540 800 L-100 800 Z" fill="#254346" stroke-width="0">
  <animate attributeName="d" dur="22.5s" repeatCount="indefinite" values="M-100 487.79C-72.14 500.64 -71.68 498.3 -45.7 498.3S-18.21 495.54 8.61 495.54S36.12 504 62.91 504S90.48 501.63 117.22 501.63S146.36 507.95 171.52 507.95S199.49 487.33 225.83 487.33S254.48 501.35 280.13 501.35S307.49 493.45 334.44 493.45S363.34 506.66 388.74 506.66S417.61 496.54 443.05 496.54S472.05 488.5 497.35 488.5S525.48 492.15 551.66 492.15S580 506.43 605.96 506.43S633.95 486.48 660.26 486.48S687.58 498.52 714.57 498.52S743.28 491.31 768.87 491.31S796.25 492.03 823.18 492.03S850.97 484.84 877.48 484.84S905.6 488.56 931.79 488.56S960.02 496.7 986.09 496.7S1015.07 504.43 1040.4 504.43S1068.61 485.97 1094.7 485.97S1122.06 491.53 1149.01 491.53S1178.03 493.82 1203.31 493.82S1231.28 492.69 1257.62 492.69S1285.29 498.95 1311.92 498.95S1339.86 503.05 1366.23 503.05S1393.45 500.52 1420.53 500.52S1449.39 489.03 1474.83 489.03S1502.92 488.1 1529.14 488.1S1557.75 497.55 1583.44 497.55L1540 800 L-100 800 Z;M-100 484.71C-71.67 495.86 -70.99 503.44 -45.7 503.44S-17.08 497.47 8.61 497.47S35.78 494.79 62.91 494.79S91.34 503.63 117.22 503.63S145.78 498.41 171.52 498.41S198.79 485.44 225.83 485.44S253.89 507.19 280.13 507.19S309.09 503.29 334.44 503.29S362.16 493.27 388.74 493.27S415.93 503.94 443.05 503.94S470.85 504.59 497.35 504.59S526.14 502.68 551.66 502.68S580.66 493.96 605.96 493.96S633.11 495.34 660.26 495.34S688.14 504.25 714.57 504.25S742.82 502.28 768.87 502.28S796.39 503.15 823.18 503.15S850.56 487.29 877.48 487.29S905.24 499.99 931.79 499.99S960.18 493.21 986.09 493.21S1013.53 507.66 1040.4 507.66S1068.28 490.35 1094.7 490.35S1123.84 489.32 1149.01 489.32S1176.68 488.41 1203.31 488.41S1232.13 492.3 1257.62 492.3S1286 502.36 1311.92 502.36S1339.46 491.43 1366.23 491.43S1394.15 492.81 1420.53 492.81S1449.02 486.75 1474.83 486.75S1503.37 491.64 1529.14 491.64S1557.71 507.17 1583.44 507.17L1540 800 L-100 800 Z;M-100 487.79C-72.14 500.64 -71.68 498.3 -45.7 498.3S-18.21 495.54 8.61 495.54S36.12 504 62.91 504S90.48 501.63 117.22 501.63S146.36 507.95 171.52 507.95S199.49 487.33 225.83 487.33S254.48 501.35 280.13 501.35S307.49 493.45 334.44 493.45S363.34 506.66 388.74 506.66S417.61 496.54 443.05 496.54S472.05 488.5 497.35 488.5S525.48 492.15 551.66 492.15S580 506.43 605.96 506.43S633.95 486.48 660.26 486.48S687.58 498.52 714.57 498.52S743.28 491.31 768.87 491.31S796.25 492.03 823.18 492.03S850.97 484.84 877.48 484.84S905.6 488.56 931.79 488.56S960.02 496.7 986.09 496.7S1015.07 504.43 1040.4 504.43S1068.61 485.97 1094.7 485.97S1122.06 491.53 1149.01 491.53S1178.03 493.82 1203.31 493.82S1231.28 492.69 1257.62 492.69S1285.29 498.95 1311.92 498.95S1339.86 503.05 1366.23 503.05S1393.45 500.52 1420.53 500.52S1449.39 489.03 1474.83 489.03S1502.92 488.1 1529.14 488.1S1557.75 497.55 1583.44 497.55L1540 800 L-100 800 Z"></animate>
  <animateTransform attributeName="transform" type="translate" dur="22.5s" begin="-2.25s" repeatCount="indefinite" values="0;10;0" calcMode="spline" keySplines="0.3 0 0.7 1;0.3 0 0.7 1"></animateTransform>
</path><path d="M-100 511.62C-70.46 513.26 -70.68 528.17 -44.22 528.17S-14.44 520.1 11.56 520.1S39.49 527.66 67.35 527.66S95.97 522.7 123.13 522.7S152.81 528.19 178.91 528.19S207 512.73 234.69 512.73S262.95 527.73 290.48 527.73S320.05 504.43 346.26 504.43S375.31 530.84 402.04 530.84S430.89 521.79 457.82 521.79S485.94 516.94 513.61 516.94S542.65 504.57 569.39 504.57S599.01 518.8 625.17 518.8S654.11 518.93 680.95 518.93S710.82 512.76 736.73 512.76S766.55 514.87 792.52 514.87S821.72 520 848.3 520S876.74 513.12 904.08 513.12S933.71 521.45 959.86 521.45S987.83 505.57 1015.65 505.57S1044.48 517.23 1071.43 517.23S1101.16 511.71 1127.21 511.71S1156.33 527.77 1182.99 527.77S1212.16 505.16 1238.78 505.16S1266.89 528.52 1294.56 528.52S1322.96 511.98 1350.34 511.98S1379.25 516.55 1406.12 516.55S1434.26 514.5 1461.9 514.5S1491.36 507.75 1517.69 507.75S1546.51 504.86 1573.47 504.86L1540 800 L-100 800 Z" fill="#3b5658" stroke-width="0">
  <animate attributeName="d" dur="20s" repeatCount="indefinite" values="M-100 511.62C-70.46 513.26 -70.68 528.17 -44.22 528.17S-14.44 520.1 11.56 520.1S39.49 527.66 67.35 527.66S95.97 522.7 123.13 522.7S152.81 528.19 178.91 528.19S207 512.73 234.69 512.73S262.95 527.73 290.48 527.73S320.05 504.43 346.26 504.43S375.31 530.84 402.04 530.84S430.89 521.79 457.82 521.79S485.94 516.94 513.61 516.94S542.65 504.57 569.39 504.57S599.01 518.8 625.17 518.8S654.11 518.93 680.95 518.93S710.82 512.76 736.73 512.76S766.55 514.87 792.52 514.87S821.72 520 848.3 520S876.74 513.12 904.08 513.12S933.71 521.45 959.86 521.45S987.83 505.57 1015.65 505.57S1044.48 517.23 1071.43 517.23S1101.16 511.71 1127.21 511.71S1156.33 527.77 1182.99 527.77S1212.16 505.16 1238.78 505.16S1266.89 528.52 1294.56 528.52S1322.96 511.98 1350.34 511.98S1379.25 516.55 1406.12 516.55S1434.26 514.5 1461.9 514.5S1491.36 507.75 1517.69 507.75S1546.51 504.86 1573.47 504.86L1540 800 L-100 800 Z;M-100 513.93C-70.28 515.99 -71.67 520.44 -44.22 520.44S-14.81 516.18 11.56 516.18S39.71 523.56 67.35 523.56S95.68 517.31 123.13 517.31S151.83 528.84 178.91 528.84S207.37 521.9 234.69 521.9S262.75 522.92 290.48 522.92S318.81 515.72 346.26 515.72S375.11 529.7 402.04 529.7S431.53 520.25 457.82 520.25S485.83 514.96 513.61 514.96S541.73 520.98 569.39 520.98S597.81 530.35 625.17 530.35S655.03 508.91 680.95 508.91S709.6 521.59 736.73 521.59S765.38 522.19 792.52 522.19S821.44 512.03 848.3 512.03S876.76 512.94 904.08 512.94S933.96 516.77 959.86 516.77S988.43 512.77 1015.65 512.77S1045.46 528.39 1071.43 528.39S1100.11 512.65 1127.21 512.65S1155.99 520.16 1182.99 520.16S1212.54 531.31 1238.78 531.31S1267.24 530.11 1294.56 530.11S1323.91 518.17 1350.34 518.17S1379.5 515.4 1406.12 515.4S1435.22 508.97 1461.9 508.97S1491.43 523.36 1517.69 523.36S1547.24 530.48 1573.47 530.48L1540 800 L-100 800 Z;M-100 511.62C-70.46 513.26 -70.68 528.17 -44.22 528.17S-14.44 520.1 11.56 520.1S39.49 527.66 67.35 527.66S95.97 522.7 123.13 522.7S152.81 528.19 178.91 528.19S207 512.73 234.69 512.73S262.95 527.73 290.48 527.73S320.05 504.43 346.26 504.43S375.31 530.84 402.04 530.84S430.89 521.79 457.82 521.79S485.94 516.94 513.61 516.94S542.65 504.57 569.39 504.57S599.01 518.8 625.17 518.8S654.11 518.93 680.95 518.93S710.82 512.76 736.73 512.76S766.55 514.87 792.52 514.87S821.72 520 848.3 520S876.74 513.12 904.08 513.12S933.71 521.45 959.86 521.45S987.83 505.57 1015.65 505.57S1044.48 517.23 1071.43 517.23S1101.16 511.71 1127.21 511.71S1156.33 527.77 1182.99 527.77S1212.16 505.16 1238.78 505.16S1266.89 528.52 1294.56 528.52S1322.96 511.98 1350.34 511.98S1379.25 516.55 1406.12 516.55S1434.26 514.5 1461.9 514.5S1491.36 507.75 1517.69 507.75S1546.51 504.86 1573.47 504.86L1540 800 L-100 800 Z"></animate>
  <animateTransform attributeName="transform" type="translate" dur="20s" begin="-4s" repeatCount="indefinite" values="0;10;0" calcMode="spline" keySplines="0.3 0 0.7 1;0.3 0 0.7 1"></animateTransform>
</path><path d="M-100 543.27C-70.65 547.81 -69.72 552.4 -42.66 552.4S-12.08 542.97 14.69 542.97S44.03 524.9 72.03 524.9S101.01 542.51 129.37 542.51S158.17 551.98 186.71 551.98S215.65 542.17 244.06 542.17S273.98 531.62 301.4 531.62S330.11 537.22 358.74 537.22S389.41 543.24 416.08 543.24S445.47 539.2 473.43 539.2S503.46 551.25 530.77 551.25S561.34 524.12 588.11 524.12S617.47 543.55 645.45 543.55S675.39 539.73 702.8 539.73S731.6 553.7 760.14 553.7S789.79 530.62 817.48 530.62S846.77 532.44 874.83 532.44S904.57 539.87 932.17 539.87S962.21 547.53 989.51 547.53S1018.81 528.41 1046.85 528.41S1076.35 546.85 1104.2 546.85S1133.65 526.43 1161.54 526.43S1192.16 551.39 1218.88 551.39S1248.58 543.86 1276.22 543.86S1305.5 526.52 1333.57 526.52S1363.3 534.21 1390.91 534.21S1420.54 552.16 1448.25 552.16S1477.55 537.21 1505.59 537.21S1535.27 541.75 1562.94 541.75L1540 800 L-100 800 Z" fill="#51696b" stroke-width="0">
  <animate attributeName="d" dur="17.5s" repeatCount="indefinite" values="M-100 543.27C-70.65 547.81 -69.72 552.4 -42.66 552.4S-12.08 542.97 14.69 542.97S44.03 524.9 72.03 524.9S101.01 542.51 129.37 542.51S158.17 551.98 186.71 551.98S215.65 542.17 244.06 542.17S273.98 531.62 301.4 531.62S330.11 537.22 358.74 537.22S389.41 543.24 416.08 543.24S445.47 539.2 473.43 539.2S503.46 551.25 530.77 551.25S561.34 524.12 588.11 524.12S617.47 543.55 645.45 543.55S675.39 539.73 702.8 539.73S731.6 553.7 760.14 553.7S789.79 530.62 817.48 530.62S846.77 532.44 874.83 532.44S904.57 539.87 932.17 539.87S962.21 547.53 989.51 547.53S1018.81 528.41 1046.85 528.41S1076.35 546.85 1104.2 546.85S1133.65 526.43 1161.54 526.43S1192.16 551.39 1218.88 551.39S1248.58 543.86 1276.22 543.86S1305.5 526.52 1333.57 526.52S1363.3 534.21 1390.91 534.21S1420.54 552.16 1448.25 552.16S1477.55 537.21 1505.59 537.21S1535.27 541.75 1562.94 541.75L1540 800 L-100 800 Z;M-100 538.74C-70.38 545 -70.5 548.1 -42.66 548.1S-13.64 538.96 14.69 538.96S43.45 551.74 72.03 551.74S101.78 536.08 129.37 536.08S159.71 537.05 186.71 537.05S216.74 535.33 244.06 535.33S273.97 544.6 301.4 544.6S331.26 525.2 358.74 525.2S388.69 543.87 416.08 543.87S446.13 546.42 473.43 546.42S503.35 553.28 530.77 553.28S559.7 539.53 588.11 539.53S617.31 555.65 645.45 555.65S674.13 541.17 702.8 541.17S731.47 539.39 760.14 539.39S788.92 527.98 817.48 527.98S846.98 547.03 874.83 547.03S904.1 536.21 932.17 536.21S961.92 552.99 989.51 552.99S1018.52 526.16 1046.85 526.16S1076.15 546.78 1104.2 546.78S1134.78 529.18 1161.54 529.18S1190.3 540.82 1218.88 540.82S1249.17 530.67 1276.22 530.67S1306.26 549.94 1333.57 549.94S1363.73 527 1390.91 527S1420.67 547.31 1448.25 547.31S1477.24 538.63 1505.59 538.63S1535.17 542.58 1562.94 542.58L1540 800 L-100 800 Z;M-100 543.27C-70.65 547.81 -69.72 552.4 -42.66 552.4S-12.08 542.97 14.69 542.97S44.03 524.9 72.03 524.9S101.01 542.51 129.37 542.51S158.17 551.98 186.71 551.98S215.65 542.17 244.06 542.17S273.98 531.62 301.4 531.62S330.11 537.22 358.74 537.22S389.41 543.24 416.08 543.24S445.47 539.2 473.43 539.2S503.46 551.25 530.77 551.25S561.34 524.12 588.11 524.12S617.47 543.55 645.45 543.55S675.39 539.73 702.8 539.73S731.6 553.7 760.14 553.7S789.79 530.62 817.48 530.62S846.77 532.44 874.83 532.44S904.57 539.87 932.17 539.87S962.21 547.53 989.51 547.53S1018.81 528.41 1046.85 528.41S1076.35 546.85 1104.2 546.85S1133.65 526.43 1161.54 526.43S1192.16 551.39 1218.88 551.39S1248.58 543.86 1276.22 543.86S1305.5 526.52 1333.57 526.52S1363.3 534.21 1390.91 534.21S1420.54 552.16 1448.25 552.16S1477.55 537.21 1505.59 537.21S1535.27 541.75 1562.94 541.75L1540 800 L-100 800 Z"></animate>
  <animateTransform attributeName="transform" type="translate" dur="17.5s" begin="-5.25s" repeatCount="indefinite" values="0;10;0" calcMode="spline" keySplines="0.3 0 0.7 1;0.3 0 0.7 1"></animateTransform>
</path><path d="M-100 553.13C-68.7 561.55 -69.05 575.28 -41.01 575.28S-9.78 552.27 17.99 552.27S48.16 563.9 76.98 563.9S106.58 546.06 135.97 546.06S166.3 568.87 194.96 568.87S224.97 559.56 253.96 559.56S284.12 572.85 312.95 572.85S343.66 562.4 371.94 562.4S403.4 566.47 430.94 566.47S460.66 553.12 489.93 553.12S519.79 573.48 548.92 573.48S578.84 562.38 607.91 562.38S637.64 561.78 666.91 561.78S697.44 555.62 725.9 555.62S756.47 562.75 784.89 562.75S816.32 552.37 843.88 552.37S874.09 571.64 902.88 571.64S933.17 557.87 961.87 557.87S992.32 562.9 1020.86 562.9S1050.91 554.88 1079.86 554.88S1111.29 564.21 1138.85 564.21S1168.64 555.32 1197.84 555.32S1228.54 567.25 1256.83 567.25S1287.76 556.06 1315.83 556.06S1346.41 579.33 1374.82 579.33S1405.35 557.8 1433.81 557.8S1463.48 576.53 1492.81 576.53S1524.17 553.77 1551.8 553.77L1540 800 L-100 800 Z" fill="#677d7f" stroke-width="0">
  <animate attributeName="d" dur="15s" repeatCount="indefinite" values="M-100 553.13C-68.7 561.55 -69.05 575.28 -41.01 575.28S-9.78 552.27 17.99 552.27S48.16 563.9 76.98 563.9S106.58 546.06 135.97 546.06S166.3 568.87 194.96 568.87S224.97 559.56 253.96 559.56S284.12 572.85 312.95 572.85S343.66 562.4 371.94 562.4S403.4 566.47 430.94 566.47S460.66 553.12 489.93 553.12S519.79 573.48 548.92 573.48S578.84 562.38 607.91 562.38S637.64 561.78 666.91 561.78S697.44 555.62 725.9 555.62S756.47 562.75 784.89 562.75S816.32 552.37 843.88 552.37S874.09 571.64 902.88 571.64S933.17 557.87 961.87 557.87S992.32 562.9 1020.86 562.9S1050.91 554.88 1079.86 554.88S1111.29 564.21 1138.85 564.21S1168.64 555.32 1197.84 555.32S1228.54 567.25 1256.83 567.25S1287.76 556.06 1315.83 556.06S1346.41 579.33 1374.82 579.33S1405.35 557.8 1433.81 557.8S1463.48 576.53 1492.81 576.53S1524.17 553.77 1551.8 553.77L1540 800 L-100 800 Z;M-100 553.8C-69.76 551.77 -70.3 569.37 -41.01 569.37S-10.99 546.19 17.99 546.19S48.44 572.09 76.98 572.09S107.49 560.85 135.97 560.85S165.95 561.41 194.96 561.41S225.28 562.3 253.96 562.3S283.83 567.98 312.95 567.98S342.83 559.77 371.94 559.77S403.13 570.09 430.94 570.09S460.79 550.61 489.93 550.61S520.8 569.98 548.92 569.98S579.47 553.48 607.91 553.48S637.71 566.89 666.91 566.89S697.79 575.34 725.9 575.34S756.71 575.08 784.89 575.08S815.91 560.95 843.88 560.95S874.59 571.14 902.88 571.14S933.33 555.04 961.87 555.04S992.8 567.85 1020.86 567.85S1050.9 574.34 1079.86 574.34S1110.91 567.53 1138.85 567.53S1169.5 555.56 1197.84 555.56S1228.65 579.66 1256.83 579.66S1286.58 545.16 1315.83 545.16S1345.39 554.63 1374.82 554.63S1406.16 556.28 1433.81 556.28S1463.56 579.87 1492.81 579.87S1523.37 555.32 1551.8 555.32L1540 800 L-100 800 Z;M-100 553.13C-68.7 561.55 -69.05 575.28 -41.01 575.28S-9.78 552.27 17.99 552.27S48.16 563.9 76.98 563.9S106.58 546.06 135.97 546.06S166.3 568.87 194.96 568.87S224.97 559.56 253.96 559.56S284.12 572.85 312.95 572.85S343.66 562.4 371.94 562.4S403.4 566.47 430.94 566.47S460.66 553.12 489.93 553.12S519.79 573.48 548.92 573.48S578.84 562.38 607.91 562.38S637.64 561.78 666.91 561.78S697.44 555.62 725.9 555.62S756.47 562.75 784.89 562.75S816.32 552.37 843.88 552.37S874.09 571.64 902.88 571.64S933.17 557.87 961.87 557.87S992.32 562.9 1020.86 562.9S1050.91 554.88 1079.86 554.88S1111.29 564.21 1138.85 564.21S1168.64 555.32 1197.84 555.32S1228.54 567.25 1256.83 567.25S1287.76 556.06 1315.83 556.06S1346.41 579.33 1374.82 579.33S1405.35 557.8 1433.81 557.8S1463.48 576.53 1492.81 576.53S1524.17 553.77 1551.8 553.77L1540 800 L-100 800 Z"></animate>
  <animateTransform attributeName="transform" type="translate" dur="15s" begin="-6s" repeatCount="indefinite" values="0;10;0" calcMode="spline" keySplines="0.3 0 0.7 1;0.3 0 0.7 1"></animateTransform>
</path><path d="M-100 582.04C-69.41 567.52 -68.66 603.82 -39.26 603.82S-8.67 578.21 21.48 578.21S53.67 600.86 82.22 600.86S113.88 566.94 142.96 566.94S175.13 598.22 203.7 598.22S235.86 576.71 264.44 576.71S296.32 598.65 325.19 598.65S356.64 571.41 385.93 571.41S417.31 603.81 446.67 603.81S477.98 566.03 507.41 566.03S538.03 590.29 568.15 590.29S598.95 575.03 628.89 575.03S659.5 600.46 689.63 600.46S721.51 598.78 750.37 598.78S781.58 594.6 811.11 594.6S841.9 577.41 871.85 577.41S903.18 601.12 932.59 601.12S964.75 572.02 993.33 572.02S1025.38 594.93 1054.07 594.93S1086.17 583.92 1114.81 583.92S1145.7 599.86 1175.56 599.86S1206.46 580.51 1236.3 580.51S1268.58 581.14 1297.04 581.14S1327.61 573.17 1357.78 573.17S1389.53 584.19 1418.52 584.19S1450.19 574.07 1479.26 574.07S1511.47 591.07 1540 591.07S1571.96 572.32 1600.74 572.32L1540 800 L-100 800 Z" fill="#7e9193" stroke-width="0">
  <animate attributeName="d" dur="12.5s" repeatCount="indefinite" values="M-100 582.04C-69.41 567.52 -68.66 603.82 -39.26 603.82S-8.67 578.21 21.48 578.21S53.67 600.86 82.22 600.86S113.88 566.94 142.96 566.94S175.13 598.22 203.7 598.22S235.86 576.71 264.44 576.71S296.32 598.65 325.19 598.65S356.64 571.41 385.93 571.41S417.31 603.81 446.67 603.81S477.98 566.03 507.41 566.03S538.03 590.29 568.15 590.29S598.95 575.03 628.89 575.03S659.5 600.46 689.63 600.46S721.51 598.78 750.37 598.78S781.58 594.6 811.11 594.6S841.9 577.41 871.85 577.41S903.18 601.12 932.59 601.12S964.75 572.02 993.33 572.02S1025.38 594.93 1054.07 594.93S1086.17 583.92 1114.81 583.92S1145.7 599.86 1175.56 599.86S1206.46 580.51 1236.3 580.51S1268.58 581.14 1297.04 581.14S1327.61 573.17 1357.78 573.17S1389.53 584.19 1418.52 584.19S1450.19 574.07 1479.26 574.07S1511.47 591.07 1540 591.07S1571.96 572.32 1600.74 572.32L1540 800 L-100 800 Z;M-100 570.49C-68.49 580.69 -68.94 599.92 -39.26 599.92S-7.76 582.94 21.48 582.94S53.45 585.23 82.22 585.23S113.72 569.07 142.96 569.07S174.84 597 203.7 597S234.42 565.96 264.44 565.96S295.9 601.17 325.19 601.17S356.74 566.06 385.93 566.06S418.25 589.18 446.67 589.18S477.8 583.54 507.41 583.54S538.78 603.54 568.15 603.54S598.63 571.58 628.89 571.58S660.48 588.53 689.63 588.53S720.57 576.81 750.37 576.81S781.92 589.53 811.11 589.53S843.01 584.82 871.85 584.82S903.19 589.32 932.59 589.32S964.9 569.12 993.33 569.12S1024.74 593.03 1054.07 593.03S1085.27 579.05 1114.81 579.05S1145.44 595.09 1175.56 595.09S1207.37 571.7 1236.3 571.7S1267.17 585.85 1297.04 585.85S1329.41 572.69 1357.78 572.69S1390.09 594.9 1418.52 594.9S1450.36 580.94 1479.26 580.94S1510.55 585.27 1540 585.27S1571.36 599.54 1600.74 599.54L1540 800 L-100 800 Z;M-100 582.04C-69.41 567.52 -68.66 603.82 -39.26 603.82S-8.67 578.21 21.48 578.21S53.67 600.86 82.22 600.86S113.88 566.94 142.96 566.94S175.13 598.22 203.7 598.22S235.86 576.71 264.44 576.71S296.32 598.65 325.19 598.65S356.64 571.41 385.93 571.41S417.31 603.81 446.67 603.81S477.98 566.03 507.41 566.03S538.03 590.29 568.15 590.29S598.95 575.03 628.89 575.03S659.5 600.46 689.63 600.46S721.51 598.78 750.37 598.78S781.58 594.6 811.11 594.6S841.9 577.41 871.85 577.41S903.18 601.12 932.59 601.12S964.75 572.02 993.33 572.02S1025.38 594.93 1054.07 594.93S1086.17 583.92 1114.81 583.92S1145.7 599.86 1175.56 599.86S1206.46 580.51 1236.3 580.51S1268.58 581.14 1297.04 581.14S1327.61 573.17 1357.78 573.17S1389.53 584.19 1418.52 584.19S1450.19 574.07 1479.26 574.07S1511.47 591.07 1540 591.07S1571.96 572.32 1600.74 572.32L1540 800 L-100 800 Z"></animate>
  <animateTransform attributeName="transform" type="translate" dur="12.5s" begin="-6.25s" repeatCount="indefinite" values="0;10;0" calcMode="spline" keySplines="0.3 0 0.7 1;0.3 0 0.7 1"></animateTransform>
</path><path d="M-100 594.56C-67.86 588.41 -67.64 613.52 -37.4 613.52S-5.06 588.73 25.19 588.73S57.06 624.27 87.79 624.27S120.2 602.09 150.38 602.09S182.16 610.45 212.98 610.45S244.84 596.17 275.57 596.17S308.2 608.47 338.17 608.47S369.6 587.69 400.76 587.69S433.92 617.88 463.36 617.88S495.26 591.92 525.95 591.92S558.3 624.72 588.55 624.72S621.18 592.84 651.15 592.84S684.32 612.03 713.74 612.03S745.53 620.33 776.34 620.33S808.67 597.05 838.93 597.05S870.77 624.61 901.53 624.61S933.1 602.9 964.12 602.9S996.7 584.74 1026.72 584.74S1058.86 622.78 1089.31 622.78S1121.91 585.07 1151.91 585.07S1184.15 603.95 1214.5 603.95S1246.22 597.82 1277.1 597.82S1308.92 609.46 1339.69 609.46S1371.82 586.69 1402.29 586.69S1435.2 618.09 1464.89 618.09S1497.03 597.21 1527.48 597.21S1559.55 614.34 1590.08 614.34L1540 800 L-100 800 Z" fill="#95a6a7" stroke-width="0">
  <animate attributeName="d" dur="10s" repeatCount="indefinite" values="M-100 594.56C-67.86 588.41 -67.64 613.52 -37.4 613.52S-5.06 588.73 25.19 588.73S57.06 624.27 87.79 624.27S120.2 602.09 150.38 602.09S182.16 610.45 212.98 610.45S244.84 596.17 275.57 596.17S308.2 608.47 338.17 608.47S369.6 587.69 400.76 587.69S433.92 617.88 463.36 617.88S495.26 591.92 525.95 591.92S558.3 624.72 588.55 624.72S621.18 592.84 651.15 592.84S684.32 612.03 713.74 612.03S745.53 620.33 776.34 620.33S808.67 597.05 838.93 597.05S870.77 624.61 901.53 624.61S933.1 602.9 964.12 602.9S996.7 584.74 1026.72 584.74S1058.86 622.78 1089.31 622.78S1121.91 585.07 1151.91 585.07S1184.15 603.95 1214.5 603.95S1246.22 597.82 1277.1 597.82S1308.92 609.46 1339.69 609.46S1371.82 586.69 1402.29 586.69S1435.2 618.09 1464.89 618.09S1497.03 597.21 1527.48 597.21S1559.55 614.34 1590.08 614.34L1540 800 L-100 800 Z;M-100 598.4C-67.39 599.09 -67.72 608.46 -37.4 608.46S-4.42 589.92 25.19 589.92S57.47 623.72 87.79 623.72S120.17 617.62 150.38 617.62S183.02 621.74 212.98 621.74S245.21 593.92 275.57 593.92S308.62 602.74 338.17 602.74S370.2 587.24 400.76 587.24S432.76 621.54 463.36 621.54S495.21 625.98 525.95 625.98S558.22 627.1 588.55 627.1S621.36 593.82 651.15 593.82S683.98 615.25 713.74 615.25S746.11 589.26 776.34 589.26S809.03 593.94 838.93 593.94S870.64 585.77 901.53 585.77S933.53 624.8 964.12 624.8S997.06 603.02 1026.72 603.02S1058.17 625.5 1089.31 625.5S1121.55 596.41 1151.91 596.41S1183.35 622.26 1214.5 622.26S1247.25 603.64 1277.1 603.64S1310 615.43 1339.69 615.43S1372.12 584.82 1402.29 584.82S1435.45 617.84 1464.89 617.84S1498.13 597.6 1527.48 597.6S1560.39 621.49 1590.08 621.49L1540 800 L-100 800 Z;M-100 594.56C-67.86 588.41 -67.64 613.52 -37.4 613.52S-5.06 588.73 25.19 588.73S57.06 624.27 87.79 624.27S120.2 602.09 150.38 602.09S182.16 610.45 212.98 610.45S244.84 596.17 275.57 596.17S308.2 608.47 338.17 608.47S369.6 587.69 400.76 587.69S433.92 617.88 463.36 617.88S495.26 591.92 525.95 591.92S558.3 624.72 588.55 624.72S621.18 592.84 651.15 592.84S684.32 612.03 713.74 612.03S745.53 620.33 776.34 620.33S808.67 597.05 838.93 597.05S870.77 624.61 901.53 624.61S933.1 602.9 964.12 602.9S996.7 584.74 1026.72 584.74S1058.86 622.78 1089.31 622.78S1121.91 585.07 1151.91 585.07S1184.15 603.95 1214.5 603.95S1246.22 597.82 1277.1 597.82S1308.92 609.46 1339.69 609.46S1371.82 586.69 1402.29 586.69S1435.2 618.09 1464.89 618.09S1497.03 597.21 1527.48 597.21S1559.55 614.34 1590.08 614.34L1540 800 L-100 800 Z"></animate>
  <animateTransform attributeName="transform" type="translate" dur="10s" begin="-6s" repeatCount="indefinite" values="0;10;0" calcMode="spline" keySplines="0.3 0 0.7 1;0.3 0 0.7 1"></animateTransform>
</path><path d="M-100 623.2C-66.96 613.54 -67.57 634.97 -35.43 634.97S-1.9 622.9 29.13 622.9S61.53 618.38 93.7 618.38S126.43 611.61 158.27 611.61S191.99 621.59 222.83 621.59S256.69 605.23 287.4 605.23S321.22 633.24 351.97 633.24S384.63 607.59 416.54 607.59S449.8 638.12 481.1 638.12S514.17 612.74 545.67 612.74S578.39 609.04 610.24 609.04S643.28 607.77 674.8 607.77S708.93 645.86 739.37 645.86S771.71 612.32 803.94 612.32S836.44 641.75 868.5 641.75S902.61 619.82 933.07 619.82S965.84 646.59 997.64 646.59S1031.17 642.83 1062.2 642.83S1094.83 634.12 1126.77 634.12S1159.17 611 1191.34 611S1224.3 636.09 1255.91 636.09S1289.5 612.09 1320.47 612.09S1352.99 646.33 1385.04 646.33S1419.16 619.92 1449.61 619.92S1482.72 633.64 1514.17 633.64S1547.41 621.69 1578.74 621.69L1540 800 L-100 800 Z" fill="#adbcbc" stroke-width="0">
  <animate attributeName="d" dur="7.5s" repeatCount="indefinite" values="M-100 623.2C-66.96 613.54 -67.57 634.97 -35.43 634.97S-1.9 622.9 29.13 622.9S61.53 618.38 93.7 618.38S126.43 611.61 158.27 611.61S191.99 621.59 222.83 621.59S256.69 605.23 287.4 605.23S321.22 633.24 351.97 633.24S384.63 607.59 416.54 607.59S449.8 638.12 481.1 638.12S514.17 612.74 545.67 612.74S578.39 609.04 610.24 609.04S643.28 607.77 674.8 607.77S708.93 645.86 739.37 645.86S771.71 612.32 803.94 612.32S836.44 641.75 868.5 641.75S902.61 619.82 933.07 619.82S965.84 646.59 997.64 646.59S1031.17 642.83 1062.2 642.83S1094.83 634.12 1126.77 634.12S1159.17 611 1191.34 611S1224.3 636.09 1255.91 636.09S1289.5 612.09 1320.47 612.09S1352.99 646.33 1385.04 646.33S1419.16 619.92 1449.61 619.92S1482.72 633.64 1514.17 633.64S1547.41 621.69 1578.74 621.69L1540 800 L-100 800 Z;M-100 617.83C-66.1 622.85 -67.39 633.61 -35.43 633.61S-1.18 607.21 29.13 607.21S61.47 643.28 93.7 643.28S127.72 615.57 158.27 615.57S191.35 636.74 222.83 636.74S256.94 604.01 287.4 604.01S320.47 635.3 351.97 635.3S385.88 623.27 416.54 623.27S449.45 647.15 481.1 647.15S514.79 615.81 545.67 615.81S579.68 647.09 610.24 647.09S642.55 611.39 674.8 611.39S708.65 617.72 739.37 617.72S773.25 606.68 803.94 606.68S836.6 647.56 868.5 647.56S902.17 617.46 933.07 617.46S967.29 645.14 997.64 645.14S1031.58 615.92 1062.2 615.92S1094.52 641.12 1126.77 641.12S1159.88 621.14 1191.34 621.14S1224.2 646.01 1255.91 646.01S1288.38 606.49 1320.47 606.49S1353.3 636.1 1385.04 636.1S1417.93 606.51 1449.61 606.51S1481.96 607.33 1514.17 607.33S1547.9 610.84 1578.74 610.84L1540 800 L-100 800 Z;M-100 623.2C-66.96 613.54 -67.57 634.97 -35.43 634.97S-1.9 622.9 29.13 622.9S61.53 618.38 93.7 618.38S126.43 611.61 158.27 611.61S191.99 621.59 222.83 621.59S256.69 605.23 287.4 605.23S321.22 633.24 351.97 633.24S384.63 607.59 416.54 607.59S449.8 638.12 481.1 638.12S514.17 612.74 545.67 612.74S578.39 609.04 610.24 609.04S643.28 607.77 674.8 607.77S708.93 645.86 739.37 645.86S771.71 612.32 803.94 612.32S836.44 641.75 868.5 641.75S902.61 619.82 933.07 619.82S965.84 646.59 997.64 646.59S1031.17 642.83 1062.2 642.83S1094.83 634.12 1126.77 634.12S1159.17 611 1191.34 611S1224.3 636.09 1255.91 636.09S1289.5 612.09 1320.47 612.09S1352.99 646.33 1385.04 646.33S1419.16 619.92 1449.61 619.92S1482.72 633.64 1514.17 633.64S1547.41 621.69 1578.74 621.69L1540 800 L-100 800 Z"></animate>
  <animateTransform attributeName="transform" type="translate" dur="7.5s" begin="-5.25s" repeatCount="indefinite" values="0;10;0" calcMode="spline" keySplines="0.3 0 0.7 1;0.3 0 0.7 1"></animateTransform>
</path><path d="M-100 641.53C-66.63 624.28 -65 671.58 -33.33 671.58S0.04 643.67 33.33 643.67S67.24 670.46 100 670.46S134.33 643.13 166.67 643.13S201.16 665.88 233.33 665.88S267.2 638.14 300 638.14S334.87 656.51 366.67 656.51S401.37 632.88 433.33 632.88S467.08 643.2 500 643.2S533.64 631.73 566.67 631.73S601.62 669.12 633.33 669.12S667.5 638.84 700 638.84S735.28 656.61 766.67 656.61S801.11 638.73 833.33 638.73S866.87 675.86 900 675.86S933.65 636.1 966.67 636.1S1000.71 631.15 1033.33 631.15S1068.4 640.28 1100 640.28S1134.4 664.4 1166.67 664.4S1201.85 642.44 1233.33 642.44S1266.72 666.97 1300 666.97S1333.62 630.67 1366.67 630.67S1400.46 673.37 1433.33 673.37S1468.28 643.24 1500 643.24S1534.1 672.83 1566.67 672.83L1540 800 L-100 800 Z" fill="#c6d2d2" stroke-width="0">
  <animate attributeName="d" dur="5s" repeatCount="indefinite" values="M-100 641.53C-66.63 624.28 -65 671.58 -33.33 671.58S0.04 643.67 33.33 643.67S67.24 670.46 100 670.46S134.33 643.13 166.67 643.13S201.16 665.88 233.33 665.88S267.2 638.14 300 638.14S334.87 656.51 366.67 656.51S401.37 632.88 433.33 632.88S467.08 643.2 500 643.2S533.64 631.73 566.67 631.73S601.62 669.12 633.33 669.12S667.5 638.84 700 638.84S735.28 656.61 766.67 656.61S801.11 638.73 833.33 638.73S866.87 675.86 900 675.86S933.65 636.1 966.67 636.1S1000.71 631.15 1033.33 631.15S1068.4 640.28 1100 640.28S1134.4 664.4 1166.67 664.4S1201.85 642.44 1233.33 642.44S1266.72 666.97 1300 666.97S1333.62 630.67 1366.67 630.67S1400.46 673.37 1433.33 673.37S1468.28 643.24 1500 643.24S1534.1 672.83 1566.67 672.83L1540 800 L-100 800 Z;M-100 639.5C-65.88 635.19 -64.75 660.74 -33.33 660.74S1.6 640.86 33.33 640.86S67.7 673.59 100 673.59S135.33 632.45 166.67 632.45S200.19 675.81 233.33 675.81S266.88 637.32 300 637.32S334.12 675.04 366.67 675.04S401.07 637.17 433.33 637.17S468.26 669.49 500 669.49S534.55 661.74 566.67 661.74S601.82 662.28 633.33 662.28S666.74 668.42 700 668.42S733.52 670.08 766.67 670.08S800.6 643.89 833.33 643.89S867.28 656.39 900 656.39S935 639.83 966.67 639.83S1001.72 664.11 1033.33 664.11S1068.49 641.72 1100 641.72S1133.66 656.28 1166.67 656.28S1201.45 637.11 1233.33 637.11S1267.8 668.23 1300 668.23S1334.15 640.4 1366.67 640.4S1400.4 656.59 1433.33 656.59S1466.91 626.97 1500 626.97S1533.97 665.16 1566.67 665.16L1540 800 L-100 800 Z;M-100 641.53C-66.63 624.28 -65 671.58 -33.33 671.58S0.04 643.67 33.33 643.67S67.24 670.46 100 670.46S134.33 643.13 166.67 643.13S201.16 665.88 233.33 665.88S267.2 638.14 300 638.14S334.87 656.51 366.67 656.51S401.37 632.88 433.33 632.88S467.08 643.2 500 643.2S533.64 631.73 566.67 631.73S601.62 669.12 633.33 669.12S667.5 638.84 700 638.84S735.28 656.61 766.67 656.61S801.11 638.73 833.33 638.73S866.87 675.86 900 675.86S933.65 636.1 966.67 636.1S1000.71 631.15 1033.33 631.15S1068.4 640.28 1100 640.28S1134.4 664.4 1166.67 664.4S1201.85 642.44 1233.33 642.44S1266.72 666.97 1300 666.97S1333.62 630.67 1366.67 630.67S1400.46 673.37 1433.33 673.37S1468.28 643.24 1500 643.24S1534.1 672.83 1566.67 672.83L1540 800 L-100 800 Z"></animate>
  <animateTransform attributeName="transform" type="translate" dur="5s" begin="-4s" repeatCount="indefinite" values="0;10;0" calcMode="spline" keySplines="0.3 0 0.7 1;0.3 0 0.7 1"></animateTransform>
</path><path d="M-100 662.04C-65.09 657.03 -63.62 681.9 -31.09 681.9S3.66 650.39 37.82 650.39S72.73 699.41 106.72 699.41S142.49 649.69 175.63 649.69S212.06 684.71 244.54 684.71S279.11 657.79 313.45 657.79S349.24 699.67 382.35 699.67S418.18 662.57 451.26 662.57S485.94 698.74 520.17 698.74S556.19 662.26 589.08 662.26S623.88 687.59 657.98 687.59S693.6 644.85 726.89 644.85S763.19 697.77 795.8 697.77S831.85 653.35 864.71 653.35S899.4 694.13 933.61 694.13S968.82 652.13 1002.52 652.13S1038.67 684.61 1071.43 684.61S1106.59 660.95 1140.34 660.95S1176.43 683.18 1209.24 683.18S1244.1 688.04 1278.15 688.04S1312.71 647.59 1347.06 647.59S1383.48 649.77 1415.97 649.77S1450.63 681.44 1484.87 681.44S1520.75 655.8 1553.78 655.8L1540 800 L-100 800 Z" fill="#dfe8e8" stroke-width="0">
  <animate attributeName="d" dur="2.5s" repeatCount="indefinite" values="M-100 662.04C-65.09 657.03 -63.62 681.9 -31.09 681.9S3.66 650.39 37.82 650.39S72.73 699.41 106.72 699.41S142.49 649.69 175.63 649.69S212.06 684.71 244.54 684.71S279.11 657.79 313.45 657.79S349.24 699.67 382.35 699.67S418.18 662.57 451.26 662.57S485.94 698.74 520.17 698.74S556.19 662.26 589.08 662.26S623.88 687.59 657.98 687.59S693.6 644.85 726.89 644.85S763.19 697.77 795.8 697.77S831.85 653.35 864.71 653.35S899.4 694.13 933.61 694.13S968.82 652.13 1002.52 652.13S1038.67 684.61 1071.43 684.61S1106.59 660.95 1140.34 660.95S1176.43 683.18 1209.24 683.18S1244.1 688.04 1278.15 688.04S1312.71 647.59 1347.06 647.59S1383.48 649.77 1415.97 649.77S1450.63 681.44 1484.87 681.44S1520.75 655.8 1553.78 655.8L1540 800 L-100 800 Z;M-100 660.55C-65.32 653.69 -64.57 684.66 -31.09 684.66S4.29 648.21 37.82 648.21S72.43 691.76 106.72 691.76S141.47 659.67 175.63 659.67S211.04 650.04 244.54 650.04S279.17 647.95 313.45 647.95S349.23 695.81 382.35 695.81S417.15 654.72 451.26 654.72S486.2 680.94 520.17 680.94S556.32 658.12 589.08 658.12S624.58 698.62 657.98 698.62S694.13 644 726.89 644S762.92 692.12 795.8 692.12S831.33 655.75 864.71 655.75S900.48 692.67 933.61 692.67S969.68 658.95 1002.52 658.95S1037.01 686.21 1071.43 686.21S1107.38 688.85 1140.34 688.85S1175.65 682.9 1209.24 682.9S1243.9 644.37 1278.15 644.37S1313.02 682.21 1347.06 682.21S1382.25 644.47 1415.97 644.47S1451.13 685.56 1484.87 685.56S1520.77 648.2 1553.78 648.2L1540 800 L-100 800 Z;M-100 662.04C-65.09 657.03 -63.62 681.9 -31.09 681.9S3.66 650.39 37.82 650.39S72.73 699.41 106.72 699.41S142.49 649.69 175.63 649.69S212.06 684.71 244.54 684.71S279.11 657.79 313.45 657.79S349.24 699.67 382.35 699.67S418.18 662.57 451.26 662.57S485.94 698.74 520.17 698.74S556.19 662.26 589.08 662.26S623.88 687.59 657.98 687.59S693.6 644.85 726.89 644.85S763.19 697.77 795.8 697.77S831.85 653.35 864.71 653.35S899.4 694.13 933.61 694.13S968.82 652.13 1002.52 652.13S1038.67 684.61 1071.43 684.61S1106.59 660.95 1140.34 660.95S1176.43 683.18 1209.24 683.18S1244.1 688.04 1278.15 688.04S1312.71 647.59 1347.06 647.59S1383.48 649.77 1415.97 649.77S1450.63 681.44 1484.87 681.44S1520.75 655.8 1553.78 655.8L1540 800 L-100 800 Z"></animate>
  <animateTransform attributeName="transform" type="translate" dur="2.5s" begin="-2.25s" repeatCount="indefinite" values="0;10;0" calcMode="spline" keySplines="0.3 0 0.7 1;0.3 0 0.7 1"></animateTransform>
</path></g>
</svg>